<?xml version="1.0" encoding="UTF-8"?>
<svg id="Layer_2" data-name="Layer 2" xmlns="http://www.w3.org/2000/svg" viewBox="0 0 369.32 67.78">
  <defs>
    <style>
      .cls-1 {
        fill: #28e554;
      }

      .cls-2 {
        fill: #fff;
      }

      .cls-3 {
        fill: #ff5b00;
      }
    </style>
  </defs>
  <g id="Layer_1-2" data-name="Layer 1">
    <g>
      <polygon class="cls-2" points="63.81 67.78 49.44 58.81 25.13 58.81 25.13 45.04 27.26 45.04 27.26 56.68 50.05 56.68 61.69 63.94 61.69 56.68 73.88 56.68 73.88 25.29 64.32 25.29 66.35 23.16 76.01 23.16 76.01 58.81 63.81 58.81 63.81 67.78"/>
      <polygon class="cls-3" points="12.19 46.4 12.19 37.43 0 37.43 0 0 50.87 0 50.87 9.16 48.74 9.16 48.74 2.13 2.13 2.13 2.13 35.31 14.32 35.31 14.32 42.56 28.5 33.71 29.89 35.36 12.19 46.4"/>
      <polygon class="cls-1" points="74.36 9.97 65.71 1.32 42.17 26.67 32.65 16.3 24 24.95 41.92 44.48 50.57 35.83 50.46 35.71 74.36 9.97"/>
      <path class="cls-2" d="M120.23,30.94c-2.32-1.05-5.01-1.7-8.05-1.97l-3.2-.29c-1.91-.15-3.28-.67-4.11-1.54-.84-.88-1.26-1.88-1.26-3.03,0-.95.23-1.82.69-2.6.46-.78,1.15-1.39,2.08-1.83.93-.44,2.08-.66,3.45-.66,1.45,0,2.66.26,3.63.77.97.51,1.7,1.2,2.2,2.06.49.86.74,1.8.74,2.83h9.14c0-2.7-.63-5.07-1.89-7.11-1.26-2.04-3.06-3.63-5.4-4.77-2.34-1.14-5.15-1.71-8.42-1.71s-5.83.52-8.11,1.57c-2.28,1.05-4.07,2.54-5.34,4.48-1.28,1.94-1.91,4.26-1.91,6.97,0,3.69,1.24,6.65,3.71,8.88,2.47,2.23,5.79,3.53,9.94,3.91l3.14.23c2.55.23,4.4.73,5.54,1.51,1.14.78,1.71,1.84,1.71,3.17,0,1.07-.3,2.01-.91,2.83-.61.82-1.5,1.46-2.68,1.91-1.18.46-2.65.69-4.4.69-1.94,0-3.52-.28-4.74-.83-1.22-.55-2.12-1.28-2.71-2.2-.59-.91-.88-1.9-.88-2.97h-9.14c0,2.7.68,5.09,2.03,7.17,1.35,2.08,3.32,3.72,5.91,4.94,2.59,1.22,5.77,1.83,9.54,1.83,3.54,0,6.59-.55,9.14-1.66,2.55-1.1,4.52-2.66,5.91-4.68,1.39-2.02,2.08-4.36,2.08-7.02s-.66-4.79-1.97-6.6c-1.31-1.81-3.13-3.24-5.45-4.28Z"/>
      <path class="cls-2" d="M159.5,26.45c-1.48-1.48-3.28-2.66-5.4-3.51-2.11-.86-4.52-1.28-7.22-1.28s-5.01.43-7.14,1.28c-2.13.86-3.95,2.03-5.45,3.51-1.5,1.49-2.66,3.21-3.46,5.17-.8,1.96-1.2,4.03-1.2,6.2v1.31c0,2.13.38,4.16,1.14,6.08.76,1.92,1.88,3.64,3.37,5.14,1.48,1.5,3.29,2.68,5.42,3.54,2.13.86,4.57,1.28,7.31,1.28s5.23-.43,7.37-1.28c2.13-.86,3.93-2.04,5.4-3.54,1.47-1.5,2.58-3.22,3.34-5.14.76-1.92,1.14-3.95,1.14-6.08v-1.31c0-2.17-.4-4.24-1.2-6.2-.8-1.96-1.94-3.68-3.43-5.17ZM154.02,43.07c-.61,1.37-1.5,2.44-2.68,3.2-1.18.76-2.66,1.14-4.45,1.14s-3.18-.38-4.4-1.14c-1.22-.76-2.13-1.83-2.74-3.2-.61-1.37-.91-2.89-.91-4.57,0-1.79.31-3.36.94-4.71.63-1.35,1.55-2.42,2.77-3.2,1.22-.78,2.66-1.17,4.34-1.17s3.17.39,4.37,1.17c1.2.78,2.11,1.85,2.74,3.2.63,1.35.94,2.92.94,4.71,0,1.68-.31,3.2-.91,4.57Z"/>
      <polygon class="cls-2" points="164.13 12.26 164.13 19 167.84 19 167.84 53.95 177.03 53.95 177.03 19 177.03 12.26 167.84 12.26 164.13 12.26"/>
      <path class="cls-2" d="M245.3,23.31c-1.62-1.09-3.61-1.63-5.97-1.63h-.4c-2.32,0-4.28.54-5.88,1.63-1.6,1.08-2.81,2.69-3.63,4.83-.04.11-.07.25-.11.36-.04-.12-.07-.25-.11-.36-.82-2.13-2.02-3.74-3.6-4.83-1.58-1.09-3.55-1.63-5.91-1.63h-.4c-2.32,0-4.28.54-5.88,1.63-1.6,1.08-2.8,2.69-3.6,4.83-.29.76-.5,1.61-.69,2.51v-7.99h0v-.17h-9.19v18.16c0,1.75-.48,3.17-1.43,4.25-.95,1.09-2.27,1.63-3.94,1.63s-2.85-.53-3.74-1.6c-.89-1.07-1.34-2.44-1.34-4.11v-18.33h-7.86v23.21c0,2.4.84,4.79,2.56,6.47.36.36.75.68,1.16.96,1.58,1.09,3.55,1.63,5.91,1.63h.4c2.32,0,4.28-.54,5.88-1.63,1.6-1.08,2.8-2.69,3.6-4.83.29-.76.5-1.61.69-2.51v7.99h0v.17h9.19v-18.16c0-1.75.48-3.17,1.43-4.25.95-1.09,2.27-1.63,3.94-1.63s2.85.53,3.74,1.6c.89,1.07,1.34,2.44,1.34,4.11v18.33h9.19v-18.16c0-1.75.48-3.17,1.43-4.25.95-1.09,2.25-1.63,3.88-1.63s2.89.53,3.77,1.6c.88,1.07,1.31,2.44,1.31,4.11v18.33h9.19v-17.82c0-3.2-.42-5.86-1.26-8-.84-2.13-2.07-3.74-3.68-4.83Z"/>
      <path class="cls-2" d="M274.54,23.17c-2.19-.91-4.88-1.37-8.08-1.37-1.11,0-2.28.02-3.54.06-1.26.04-2.48.1-3.66.17-1.18.08-2.23.15-3.14.23v7.71c1.18-.08,2.5-.14,3.97-.2s2.88-.1,4.26-.14c1.37-.04,2.47-.06,3.31-.06,1.67,0,2.89.39,3.66,1.17.76.78,1.14,1.99,1.14,3.63v.06h-5.65c-2.78,0-5.24.35-7.37,1.06-2.13.71-3.79,1.79-4.97,3.26-1.18,1.47-1.77,3.34-1.77,5.63,0,2.09.48,3.89,1.43,5.4.95,1.5,2.27,2.66,3.97,3.46,1.69.8,3.66,1.2,5.91,1.2s4.01-.4,5.51-1.2c1.5-.8,2.68-1.94,3.54-3.43.38-.67.69-1.41.94-2.22v6.04h7.25v-19.19c0-2.89-.57-5.26-1.71-7.11-1.14-1.85-2.81-3.23-5-4.14ZM272.46,42.02c-.08,1.56-.38,2.78-.91,3.65-.53.88-1.21,1.5-2.03,1.86-.82.36-1.74.54-2.77.54-1.6,0-2.83-.39-3.68-1.17-.86-.78-1.29-1.8-1.29-3.06,0-1.33.43-2.39,1.29-3.17.86-.78,2.08-1.17,3.68-1.17h5.71v2.51Z"/>
      <path class="cls-2" d="M295.59,13.86h-8.51l-.02,8.45h-4.78v6.74h4.77l-.03,12.34c0,3.16.46,5.66,1.37,7.51.91,1.85,2.34,3.17,4.28,3.97s4.49,1.2,7.65,1.2h4.4v-7.77h-4.63c-1.45,0-2.56-.39-3.34-1.17-.78-.78-1.17-1.91-1.17-3.4v-12.68h9.14v-6.74h-9.14v-8.45Z"/>
      <path class="cls-2" d="M327.05,44.39c-.49.78-1.17,1.39-2.03,1.83-.86.44-1.89.66-3.11.66-1.64,0-2.96-.37-3.97-1.11-1.01-.74-1.74-1.79-2.2-3.14-.46-1.35-.69-2.86-.69-4.54,0-1.79.25-3.36.74-4.71.49-1.35,1.25-2.41,2.26-3.17,1.01-.76,2.27-1.14,3.8-1.14,1.79,0,3.18.49,4.17,1.46.99.97,1.56,2.18,1.71,3.63h8.97c-.15-2.55-.88-4.8-2.17-6.74-1.29-1.94-3.03-3.45-5.2-4.54-2.17-1.08-4.66-1.63-7.48-1.63-2.59,0-4.88.44-6.88,1.31-2,.88-3.67,2.08-5.03,3.6-1.35,1.52-2.37,3.27-3.06,5.23-.69,1.96-1.03,4.01-1.03,6.14v1.08c0,2.06.33,4.05,1,5.97.67,1.92,1.67,3.65,3,5.17,1.33,1.52,2.99,2.74,4.97,3.66,1.98.91,4.34,1.37,7.08,1.37s5.33-.55,7.54-1.66c2.21-1.1,3.98-2.64,5.31-4.6,1.33-1.96,2.06-4.24,2.17-6.82h-8.91c-.15,1.03-.48,1.93-.97,2.71Z"/>
      <path class="cls-2" d="M366.58,25.03c-1.83-2.46-4.48-3.68-7.94-3.68h-.4c-2.36,0-4.32.56-5.88,1.68-1.46,1.05-2.58,2.58-3.37,4.55v-15.66h-9.19v41.69h9.19v-18.05c0-1.79.52-3.24,1.57-4.34,1.05-1.1,2.43-1.66,4.14-1.66s2.95.51,3.94,1.54c.99,1.03,1.48,2.4,1.48,4.11v18.39h9.19v-17.82c0-4.72-.91-8.31-2.74-10.77Z"/>
    </g>
  </g>
</svg>