<?xml version="1.0" encoding="UTF-8"?>
<svg id="Layer_2" data-name="Layer 2" xmlns="http://www.w3.org/2000/svg" viewBox="0 0 325.31 59.7">
  <defs>
    <style>
      .cls-1 {
        fill: #28e554;
      }

      .cls-2 {
        fill: #ff5b00;
      }

      .cls-3 {
        fill: #020259;
      }
    </style>
  </defs>
  <g id="Layer_1-2" data-name="Layer 1">
    <g>
      <polygon class="cls-3" points="56.21 59.7 43.55 51.8 22.14 51.8 22.14 39.68 24.01 39.68 24.01 49.93 44.09 49.93 54.34 56.32 54.34 49.93 65.07 49.93 65.07 22.28 56.65 22.28 58.45 20.4 66.95 20.4 66.95 51.8 56.21 51.8 56.21 59.7"/>
      <polygon class="cls-2" points="10.74 40.87 10.74 32.97 0 32.97 0 0 44.81 0 44.81 8.07 42.94 8.07 42.94 1.88 1.88 1.88 1.88 31.1 12.61 31.1 12.61 37.49 25.11 29.7 26.33 31.14 10.74 40.87"/>
      <polygon class="cls-1" points="65.5 8.78 57.88 1.16 37.14 23.49 28.76 14.36 21.14 21.98 36.93 39.18 44.54 31.56 44.44 31.45 65.5 8.78"/>
      <path class="cls-3" d="M62.9,56.35c-.08-.21-.2-.4-.36-.57-.16-.17-.35-.31-.58-.41-.23-.1-.49-.15-.79-.15s-.56.05-.79.15c-.23.1-.42.23-.58.41-.16.17-.28.36-.36.57s-.12.43-.12.66v.09c0,.22.04.44.12.65.08.21.2.41.35.58.16.17.35.31.58.41.23.1.5.15.8.15s.56-.05.8-.15c.23-.1.43-.24.58-.41.16-.17.27-.37.35-.58.08-.21.12-.43.12-.65v-.09c0-.23-.04-.44-.12-.66ZM62.53,57.83c-.12.23-.3.42-.53.56-.23.14-.51.21-.83.21s-.6-.07-.82-.21c-.23-.14-.41-.33-.53-.56-.13-.23-.19-.49-.19-.77s.06-.55.19-.78c.13-.24.3-.42.53-.56.23-.14.5-.21.82-.21s.6.07.83.21c.23.14.41.33.53.56.12.24.18.5.18.78s-.06.54-.18.77Z"/>
      <path class="cls-3" d="M61.72,57.14c.14-.11.2-.27.2-.47s-.07-.36-.2-.47c-.14-.11-.32-.17-.56-.17h-.66v1.98h.31v-.69h.32l.57.69h.36l-.61-.73c.1-.03.2-.07.27-.14ZM60.8,56.31h.38c.14,0,.25.03.32.09.07.06.1.15.1.28s-.03.22-.1.28c-.07.06-.18.09-.32.09h-.38v-.73Z"/>
      <path class="cls-3" d="M105.9,26.85c-2.05-.92-4.41-1.5-7.09-1.74l-2.82-.25c-1.68-.13-2.88-.59-3.62-1.36-.74-.77-1.11-1.66-1.11-2.67,0-.84.2-1.6.6-2.29.4-.69,1.01-1.22,1.84-1.61.82-.38,1.84-.58,3.04-.58,1.27,0,2.34.23,3.19.68.86.45,1.5,1.06,1.94,1.81.44.75.65,1.59.65,2.49h8.05c0-2.38-.55-4.47-1.66-6.26-1.11-1.79-2.69-3.19-4.75-4.2-2.06-1.01-4.54-1.51-7.42-1.51s-5.13.46-7.14,1.38c-2.01.92-3.58,2.24-4.7,3.95-1.12,1.71-1.69,3.76-1.69,6.14,0,3.25,1.09,5.86,3.27,7.82,2.18,1.96,5.1,3.11,8.75,3.45l2.77.2c2.25.2,3.87.65,4.88,1.33,1.01.69,1.51,1.62,1.51,2.79,0,.94-.27,1.77-.81,2.49-.54.72-1.33,1.28-2.36,1.69-1.04.4-2.33.6-3.87.6-1.71,0-3.1-.24-4.18-.73-1.07-.49-1.87-1.13-2.39-1.94-.52-.8-.78-1.68-.78-2.62h-8.05c0,2.38.6,4.49,1.79,6.31,1.19,1.83,2.93,3.28,5.21,4.35,2.28,1.07,5.08,1.61,8.4,1.61,3.12,0,5.8-.49,8.05-1.46,2.25-.97,3.98-2.35,5.21-4.13,1.22-1.78,1.84-3.84,1.84-6.19s-.58-4.22-1.74-5.81c-1.16-1.59-2.76-2.85-4.8-3.77Z"/>
      <path class="cls-3" d="M140.49,22.9c-1.31-1.31-2.89-2.34-4.75-3.09-1.86-.75-3.98-1.13-6.36-1.13s-4.41.38-6.29,1.13c-1.88.75-3.48,1.79-4.8,3.09-1.33,1.31-2.34,2.83-3.04,4.55-.7,1.73-1.06,3.55-1.06,5.46v1.16c0,1.88.34,3.66,1.01,5.36.67,1.69,1.66,3.2,2.97,4.53,1.31,1.33,2.9,2.36,4.78,3.12,1.88.75,4.03,1.13,6.44,1.13s4.61-.38,6.49-1.13c1.88-.75,3.46-1.79,4.75-3.12,1.29-1.32,2.27-2.83,2.94-4.53.67-1.69,1.01-3.48,1.01-5.36v-1.16c0-1.91-.35-3.73-1.06-5.46-.7-1.73-1.71-3.24-3.02-4.55ZM135.66,37.54c-.54,1.21-1.33,2.15-2.36,2.82-1.04.67-2.35,1.01-3.92,1.01s-2.8-.34-3.87-1.01c-1.07-.67-1.88-1.61-2.42-2.82-.54-1.21-.8-2.55-.8-4.02,0-1.58.28-2.96.83-4.15.55-1.19,1.37-2.13,2.44-2.82,1.07-.69,2.35-1.03,3.82-1.03s2.79.34,3.85,1.03c1.06.69,1.86,1.63,2.41,2.82.55,1.19.83,2.57.83,4.15,0,1.48-.27,2.82-.81,4.02Z"/>
      <polygon class="cls-3" points="144.57 10.8 144.57 16.74 147.84 16.74 147.84 47.53 155.94 47.53 155.94 16.74 155.94 10.8 147.84 10.8 144.57 10.8"/>
      <path class="cls-3" d="M216.07,20.54c-1.43-.96-3.18-1.43-5.26-1.43h-.35c-2.05,0-3.77.48-5.18,1.43-1.41.96-2.47,2.37-3.19,4.25-.04.1-.06.22-.1.32-.04-.1-.06-.22-.1-.32-.72-1.88-1.78-3.29-3.17-4.25-1.39-.96-3.13-1.43-5.21-1.43h-.35c-2.05,0-3.77.48-5.18,1.43-1.41.96-2.46,2.37-3.17,4.25-.25.67-.44,1.42-.6,2.21v-7.04h0v-.15h-8.1v16c0,1.54-.42,2.79-1.26,3.75-.84.96-2,1.43-3.47,1.43s-2.51-.47-3.29-1.41c-.79-.94-1.18-2.15-1.18-3.62v-16.15h-6.92v20.44c0,2.12.74,4.22,2.25,5.7.32.31.66.6,1.02.85,1.39.96,3.13,1.43,5.21,1.43h.35c2.05,0,3.77-.48,5.18-1.43,1.41-.96,2.46-2.37,3.17-4.25.25-.67.44-1.42.6-2.21v7.04h0v.15h8.1v-16c0-1.54.42-2.79,1.26-3.75.84-.96,2-1.43,3.47-1.43s2.51.47,3.29,1.41c.79.94,1.18,2.15,1.18,3.62v16.15h8.1v-16c0-1.54.42-2.79,1.26-3.75.84-.96,1.98-1.43,3.42-1.43s2.55.47,3.32,1.41c.77.94,1.16,2.15,1.16,3.62v16.15h8.1v-15.7c0-2.82-.37-5.16-1.11-7.04-.74-1.88-1.82-3.29-3.24-4.25Z"/>
      <path class="cls-3" d="M241.83,20.41c-1.93-.8-4.3-1.21-7.12-1.21-.97,0-2.01.02-3.12.05-1.11.03-2.18.08-3.22.15-1.04.07-1.96.13-2.77.2v6.79c1.04-.07,2.2-.13,3.5-.18s2.54-.09,3.75-.13c1.21-.03,2.18-.05,2.92-.05,1.48,0,2.55.34,3.22,1.03.67.69,1.01,1.75,1.01,3.19v.05h-4.98c-2.45,0-4.61.31-6.49.93-1.88.62-3.34,1.58-4.38,2.87-1.04,1.29-1.56,2.94-1.56,4.96,0,1.84.42,3.43,1.26,4.75.84,1.33,2,2.34,3.5,3.04,1.49.7,3.23,1.06,5.21,1.06s3.53-.35,4.86-1.06c1.32-.7,2.36-1.71,3.12-3.02.34-.59.61-1.24.83-1.95v5.32h6.39v-16.9c0-2.55-.5-4.64-1.51-6.26-1.01-1.63-2.47-2.84-4.4-3.65ZM239.99,37.01c-.07,1.38-.34,2.45-.81,3.22-.47.77-1.07,1.32-1.79,1.63-.72.32-1.53.48-2.44.48-1.41,0-2.49-.34-3.24-1.03-.76-.69-1.13-1.59-1.13-2.69,0-1.17.38-2.1,1.13-2.79.75-.69,1.84-1.03,3.24-1.03h5.03v2.21Z"/>
      <path class="cls-3" d="M260.37,12.21h-7.49l-.02,7.45h-4.21v5.94h4.2l-.02,10.87c0,2.78.4,4.99,1.21,6.62.8,1.63,2.06,2.79,3.77,3.5,1.71.7,3.96,1.06,6.74,1.06h3.87v-6.84h-4.07c-1.28,0-2.26-.34-2.94-1.03-.69-.69-1.03-1.69-1.03-2.99v-11.17h8.05v-5.94h-8.05v-7.45Z"/>
      <path class="cls-3" d="M288.09,39.1c-.44.69-1.03,1.22-1.79,1.61-.75.39-1.67.58-2.74.58-1.44,0-2.61-.33-3.5-.98-.89-.65-1.53-1.58-1.94-2.77-.4-1.19-.6-2.52-.6-4,0-1.58.22-2.96.65-4.15.44-1.19,1.1-2.12,1.99-2.79.89-.67,2-1.01,3.35-1.01,1.58,0,2.8.43,3.67,1.28.87.86,1.37,1.92,1.51,3.19h7.9c-.13-2.25-.77-4.23-1.91-5.94-1.14-1.71-2.67-3.04-4.58-4-1.91-.96-4.11-1.43-6.59-1.43-2.28,0-4.3.39-6.06,1.16-1.76.77-3.24,1.83-4.43,3.17-1.19,1.34-2.09,2.88-2.69,4.6-.6,1.73-.91,3.53-.91,5.41v.96c0,1.81.29,3.56.88,5.26.59,1.69,1.47,3.21,2.64,4.55,1.17,1.34,2.63,2.41,4.38,3.22,1.74.81,3.82,1.21,6.24,1.21s4.7-.49,6.64-1.46c1.94-.97,3.5-2.32,4.68-4.05,1.17-1.73,1.81-3.73,1.91-6.01h-7.85c-.13.91-.42,1.7-.86,2.39Z"/>
      <path class="cls-3" d="M322.9,22.04c-1.61-2.16-3.94-3.24-6.99-3.24h-.35c-2.08,0-3.81.5-5.18,1.48-1.29.93-2.27,2.27-2.97,4.01v-13.79h-8.1v36.72h8.1v-15.9c0-1.58.46-2.85,1.38-3.82.92-.97,2.14-1.46,3.65-1.46s2.6.45,3.47,1.36c.87.91,1.31,2.11,1.31,3.62v16.2h8.1v-15.7c0-4.16-.81-7.32-2.41-9.48Z"/>
    </g>
  </g>
</svg>